<?xml version="1.0" encoding="iso-8859-1"?>
<!-- Generator: Adobe Illustrator 19.0.0, SVG Export Plug-In . SVG Version: 6.00 Build 0)  -->
<svg version="1.1" id="Capa_1" xmlns="http://www.w3.org/2000/svg" xmlns:xlink="http://www.w3.org/1999/xlink" x="0px" y="0px"
	 viewBox="0 0 512 512" style="enable-background:new 0 0 512 512;" xml:space="preserve">
<g>
	<polygon style="fill:#FFC766;" points="122.142,150.911 122.142,185.867 389.858,185.867 389.858,150.911 282.7,150.911 
		229.3,150.911 	"/>
	<path style="fill:#FFC766;" d="M73.369,406.946c0,10.617,8.607,19.224,19.224,19.224h22.09c-0.006-0.237-0.018-0.473-0.018-0.712
		c0-15.139,12.273-27.412,27.412-27.412c15.14,0,27.412,12.273,27.412,27.412c0,0.239-0.012,0.475-0.018,0.712h173.055
		c-0.006-0.237-0.018-0.473-0.018-0.712c0-15.139,12.273-27.412,27.412-27.412c15.139,0,27.412,12.273,27.412,27.412
		c0,0.239-0.012,0.475-0.018,0.712H416.2c10.617,0,19.224-8.607,19.224-19.224v-18.459H73.369V406.946z"/>
</g>
<path style="fill:#EC6575;" d="M430.087,306.553v-29.042H43.375V366.7c0,12.033,9.755,21.787,21.788,21.787h8.206h362.058h11.41
	c12.033,0,21.788-9.755,21.788-21.787v-44.661h-23.052C437.02,322.039,430.087,315.106,430.087,306.553z"/>
<g>
	<path style="fill:#ECEFF0;" d="M60.844,185.867c-9.648,0-17.469,7.821-17.469,17.469v74.175h386.711h38.538v-74.175
		c0-9.648-7.821-17.469-17.469-17.469h-61.297H122.142L60.844,185.867L60.844,185.867z"/>
	<path style="fill:#ECEFF0;" d="M142.078,398.046c-15.139,0-27.412,12.273-27.412,27.412c0,0.239,0.012,0.475,0.018,0.712
		c0.379,14.809,12.494,26.7,27.394,26.7s27.016-11.891,27.395-26.7c0.006-0.237,0.018-0.473,0.018-0.712
		C169.491,410.319,157.218,398.046,142.078,398.046z"/>
	<path style="fill:#ECEFF0;" d="M369.922,398.046c-15.14,0-27.412,12.273-27.412,27.412c0,0.239,0.012,0.475,0.018,0.712
		c0.379,14.809,12.494,26.7,27.395,26.7s27.016-11.891,27.394-26.7c0.006-0.237,0.018-0.473,0.018-0.712
		C397.334,410.319,385.061,398.046,369.922,398.046z"/>
	<path style="fill:#ECEFF0;" d="M256,121.786c-14.746,0-26.7,11.954-26.7,26.7v2.425h53.4v-2.425
		C282.7,133.74,270.746,121.786,256,121.786z"/>
</g>
<path style="fill:#FFC766;" d="M430.087,306.553c0,8.553,6.933,15.486,15.486,15.486h23.052v-44.528h-38.538V306.553z"/>
<path d="M10,466.431h492c5.522,0,10-4.477,10-10s-4.478-10-10-10H400.886c2.118-3.117,3.772-6.571,4.877-10.26h10.439
	c16.114,0,29.225-13.11,29.225-29.225v-8.459h1.41c17.527,0,31.787-14.26,31.787-31.788v-44.661V277.51v-74.175
	c0-15.146-12.322-27.469-27.469-27.469h-34.432h-16.865V160.91h18.658c5.522,0,10-4.477,10-10s-4.478-10-10-10h-28.658H291.91
	c-2.12-10.063-8.373-18.622-16.896-23.806L330.3,62.696c3.936-3.874,3.986-10.206,0.112-14.142
	c-3.873-3.936-10.203-3.987-14.142-0.113l-64.639,63.613c-15.666,1.868-28.334,13.635-31.541,28.856h-97.949H93.483
	c-5.523,0-10,4.477-10,10s4.477,10,10,10h18.658v14.956H95.276H60.845c-15.146,0-27.469,12.323-27.469,27.469v74.175v89.19
	c0,16.926,13.297,30.8,29.994,31.734v8.513c0,16.115,13.11,29.225,29.224,29.225h13.643c1.105,3.689,2.759,7.143,4.877,10.26H10
	c-5.523,0-10,4.477-10,10S4.477,466.431,10,466.431z M201.309,287.511H310.69h55.853v90.977H145.457v-90.977H201.309z
	 M300.69,267.511h-89.381v-71.644h89.381V267.511z M383.62,436.171c-3.19,4.07-8.138,6.7-13.698,6.7s-10.508-2.63-13.698-6.7
	c-2.318-2.958-3.714-6.671-3.714-10.712c0-3.416,1.003-6.596,2.71-9.288c3.09-4.873,8.518-8.125,14.702-8.125
	s11.613,3.251,14.702,8.125c1.707,2.692,2.71,5.872,2.71,9.288C387.334,429.499,385.938,433.213,383.62,436.171z M178.323,416.171
	c-1.755-6.845-5.409-12.933-10.357-17.684h176.07c-4.948,4.751-8.602,10.838-10.357,17.684H178.323z M127.375,416.171
	c3.09-4.873,8.518-8.125,14.703-8.125s11.613,3.251,14.703,8.125c1.707,2.692,2.71,5.872,2.71,9.288
	c0,4.041-1.396,7.754-3.714,10.712c-3.19,4.07-8.138,6.7-13.699,6.7s-10.509-2.63-13.699-6.7c-2.318-2.958-3.714-6.671-3.714-10.712
	C124.666,422.043,125.669,418.863,127.375,416.171z M173.043,446.431c2.118-3.117,3.772-6.571,4.877-10.26h156.16
	c1.105,3.689,2.759,7.143,4.877,10.26H173.043z M425.427,406.946c0,5.086-4.138,9.225-9.225,9.225h-10.036
	c-1.755-6.845-5.409-12.933-10.357-17.684h29.618V406.946z M458.624,366.7c0,6.5-5.288,11.788-11.787,11.788h-11.41h-48.884v-90.977
	h33.544v19.042c0,14.053,11.434,25.486,25.486,25.486h13.051V366.7z M458.624,312.039h-13.051c-3.025,0-5.486-2.461-5.486-5.486
	v-19.042h18.537V312.039z M458.624,203.336v64.175h-28.537h-3.363v-71.644h24.432C455.273,195.867,458.624,199.217,458.624,203.336z
	 M406.724,195.867v71.644h-30.181H320.69v-71.644h69.168L406.724,195.867L406.724,195.867z M256,131.786
	c6.483,0,12.115,3.714,14.882,9.125h-29.763C243.885,135.499,249.517,131.786,256,131.786z M132.142,160.911H229.3h53.4h97.158
	v14.956H310.69H201.309h-69.167V160.911z M122.142,195.867h69.167v71.644h-55.852h-30.181v-71.644L122.142,195.867L122.142,195.867z
	 M53.375,203.336c0-4.119,3.351-7.469,7.469-7.469h24.431v71.644h-31.9V203.336z M53.375,366.7v-79.189h72.082v90.977H73.369h-8.206
	C58.664,378.487,53.375,373.199,53.375,366.7z M105.834,416.171h-13.24c-5.086,0-9.224-4.138-9.224-9.225v-8.459h32.822
	C111.243,403.238,107.589,409.326,105.834,416.171z"/>
<path d="M178.302,365.681h155.396c5.522,0,10-4.477,10-10s-4.478-10-10-10H178.302c-5.523,0-10,4.477-10,10
	S172.779,365.681,178.302,365.681z"/>
<path d="M298.96,324.97c0.25,0.61,0.56,1.19,0.92,1.73c0.37,0.55,0.79,1.06,1.25,1.52s0.97,0.88,1.52,1.24
	c0.54,0.36,1.12,0.67,1.721,0.92c0.609,0.25,1.239,0.45,1.87,0.57c0.649,0.13,1.31,0.2,1.96,0.2c2.63,0,5.21-1.07,7.069-2.93
	c0.46-0.46,0.88-0.97,1.24-1.52c0.36-0.54,0.67-1.12,0.92-1.73c0.25-0.6,0.45-1.23,0.57-1.87c0.13-0.64,0.2-1.3,0.2-1.95
	c0-2.63-1.07-5.21-2.931-7.07c-0.46-0.46-0.97-0.88-1.52-1.25c-0.54-0.36-1.12-0.66-1.73-0.91c-0.6-0.25-1.229-0.45-1.87-0.57
	c-1.29-0.26-2.609-0.26-3.909,0c-0.631,0.12-1.261,0.32-1.87,0.57c-0.601,0.25-1.181,0.55-1.721,0.91
	c-0.55,0.37-1.06,0.79-1.52,1.25c-1.86,1.86-2.93,4.44-2.93,7.07c0,0.65,0.06,1.31,0.189,1.95
	C298.52,323.74,298.71,324.369,298.96,324.97z"/>
<path d="M203.801,331.149h64.398c5.522,0,10-4.477,10-10s-4.478-10-10-10h-64.398c-5.523,0-10,4.477-10,10
	S198.278,331.149,203.801,331.149z"/>
<g>
</g>
<g>
</g>
<g>
</g>
<g>
</g>
<g>
</g>
<g>
</g>
<g>
</g>
<g>
</g>
<g>
</g>
<g>
</g>
<g>
</g>
<g>
</g>
<g>
</g>
<g>
</g>
<g>
</g>
</svg>
